# xmcd CD database file
#
# Track frame offsets:
#	183
#	14880
#	28445
#	41685
#	55378
#	68918
#	89120
#	102545
#	114000
#	128558
#	140395
#	151930
#	165000
#	183508
#	198520
#	212833
#	232598
#	246290
#	259615
#
# Disc length: 3647 seconds
#
# Revision: 1
# Processed by: cddbd v1.4PL0 Copyright (c) Steve Scherf et al.
# Submitted via: CDex 1.50Beta7
#
DISCID=0a0e3d13
DTITLE=Claude Luter - St Germain Dance
DYEAR=1997
DGENRE=Jazz
TTITLE0=Saint Germain dance
TTITLE1=Creole Jazz
TTITLE2=Passport to paradise
TTITLE3=Reincarnation rag
TTITLE4=Summerset 
TTITLE5=Danger blues
TTITLE6=Premier bal
TTITLE7=Nagging at me
TTITLE8=In a Georgia cabin
TTITLE9=For my mamie
TTITLE10=I'm through, goodbye
TTITLE11=Viper mad
TTITLE12=Where am I?
TTITLE13=Stop shimmy sister
TTITLE14=Carolina shout
TTITLE15=Trio blues
TTITLE16=Sokolkini stomp
TTITLE17=Mille pattes stomp
TTITLE18=I want to be by myself
EXTD=YEAR: 1997
EXTT0=
EXTT1=
EXTT2=
EXTT3=
EXTT4=
EXTT5=
EXTT6=
EXTT7=
EXTT8=
EXTT9=
EXTT10=
EXTT11=
EXTT12=
EXTT13=
EXTT14=
EXTT15=
EXTT16=
EXTT17=
EXTT18=
PLAYORDER=
